<svg xmlns="http://www.w3.org/2000/svg" version="1.1" xmlns:xlink="http://www.w3.org/1999/xlink" xmlns:svgjs="http://svgjs.dev/svgjs" width="1000" height="1000" viewBox="0 0 1000 1000"><rect width="1000" height="1000" fill="#ffffff"></rect><g transform="matrix(0.7,0,0,0.7,149.57575757575756,282.1265587044535)"><svg viewBox="0 0 396 247" data-background-color="#1f2d5a" preserveAspectRatio="xMidYMid meet" height="623" width="1000" xmlns="http://www.w3.org/2000/svg" xmlns:xlink="http://www.w3.org/1999/xlink"><g id="tight-bounds" transform="matrix(1,0,0,1,0.2400000000000091,-0.09999999999999432)"><svg viewBox="0 0 395.52 247.2" height="247.2" width="395.52"><g><svg></svg></g><g><svg viewBox="0 0 395.52 247.2" height="247.2" width="395.52"><g transform="matrix(1,0,0,1,75.54432,85.72381508545385)"><svg viewBox="0 0 244.43135999999998 75.75236982909229" height="75.75236982909229" width="244.43135999999998"><g><svg viewBox="0 0 244.43135999999998 75.75236982909229" height="75.75236982909229" width="244.43135999999998"><g><svg viewBox="0 0 244.43135999999998 75.75236982909229" height="75.75236982909229" width="244.43135999999998"><g><svg viewBox="0 0 244.43135999999998 75.75236982909229" height="75.75236982909229" width="244.43135999999998"><g><svg viewBox="0 0 244.43135999999998 75.75236982909229" height="75.75236982909229" width="244.43135999999998"><g><svg viewBox="0 0 244.43135999999998 75.75236982909229" height="75.75236982909229" width="244.43135999999998"><g transform="matrix(1,0,0,1,0,0)"><svg width="244.43135999999998" viewBox="0.9800000190734863 -38.43000030517578 128.5500030517578 39.849998474121094" height="75.75236982909229" data-palette-color="#fbfbfb"><path d="M1.17 0.15L1.17 0.15 1.07-2.25Q5.57-2.98 6.64-3.03L6.64-3.03Q6.69-4.69 6.69-8.01L6.69-8.01Q6.69-12.4 6.49-20.68 6.3-28.96 6.25-31.64L6.25-31.64 1.32-31.88 0.98-34.72Q2.98-34.67 7.18-34.67L7.18-34.67Q11.47-34.67 13.57-34.62L13.57-34.62 13.72-32.18Q12.89-31.84 11.38-31.76 9.86-31.69 9.47-31.64L9.47-31.64Q9.62-30.27 9.64-24.76 9.67-19.24 9.67-12.55 9.67-5.86 9.77-3.03L9.77-3.03Q10.55-2.88 12.74-2.69 14.94-2.49 15.48-2.39L15.48-2.39 15.38 0.15Q13.92 0.1 10.74 0.1L10.74 0.1Q9.08 0.1 5.81 0.12 2.54 0.15 1.17 0.15ZM21.77-19.53L21.77-19.53 21.97-0.2Q21.24 0.2 20.21 0.2L20.21 0.2Q19.43 0.2 18.45-0.05L18.45-0.05Q18.6-3.13 18.65-12.16 18.7-21.19 19.04-25.54L19.04-25.54 21.24-25.05 21.38-22.31Q23.97-25.05 27.34-25.05L27.34-25.05Q29.05-25.05 30.08-24.8 31.1-24.56 32.05-23.61 33.01-22.66 33.49-21.09 33.98-19.53 34.37-16.63 34.76-13.72 34.93-9.84 35.1-5.96 35.15-0.05L35.15-0.05Q34.86 0.05 34.03 0.05L34.03 0.05Q32.27 0.05 31.3-0.39L31.3-0.39Q31.1-1.17 31.1-2.98L31.1-2.98Q31.1-3.91 31.17-6.47 31.25-9.03 31.25-10.45L31.25-10.45Q31.25-12.79 31.08-14.55 30.91-16.31 30.44-18.02 29.98-19.73 29.03-20.65 28.07-21.58 26.66-21.58L26.66-21.58Q25.05-21.58 24.14-21.34 23.24-21.09 22.87-20.75 22.51-20.41 21.77-19.53ZM55.56-24.22L55.56-24.22 55.32-22.12Q53.27-22.41 51.8-22.41L51.8-22.41Q48.43-22.41 46.24-20.39 44.04-18.36 43.23-15.6 42.43-12.84 42.43-9.47L42.43-9.47Q42.43-7.91 42.62-6.69 42.82-5.47 43.33-4.3 43.84-3.13 44.94-2.47 46.04-1.81 47.65-1.81L47.65-1.81Q49.8-1.81 53.12-2.64L53.12-2.64Q54.15-3.03 54.73-3.03L54.73-3.03Q55.9-3.03 56.15-0.29L56.15-0.29Q51.85 1.07 48.19 1.07L48.19 1.07Q42.87 1.07 40.99-1.54 39.11-4.15 39.11-10.01L39.11-10.01Q39.11-13.43 39.57-15.99 40.03-18.55 41.21-20.78 42.38-23 44.6-24.17 46.82-25.34 50.04-25.34L50.04-25.34Q53.66-25.34 55.56-24.22ZM58.64-2.34L59.71-33.5 61.96-33.01 63.03-1.42Q62.59 0.1 61.32 0.1L61.32 0.1Q60.44 0.1 59.64-0.61 58.83-1.32 58.64-2.34L58.64-2.34ZM81.53-24.51L81.53-24.51 83.88-24.07 83.88-23.58Q83.88-20.26 84.29-12.35 84.71-4.44 85.05-0.15L85.05-0.15Q84.07 0.24 83.19 0.24L83.19 0.24Q82.41 0.24 81.44 0L81.44 0 81.04-1.27Q77.92 0.49 75.09 0.49L75.09 0.49Q72.99 0.49 71.45-0.49 69.91-1.46 69.08-2.91 68.25-4.35 67.76-6.47 67.28-8.59 67.15-10.33 67.03-12.06 67.03-14.21L67.03-14.21Q67.03-20.46 67.81-25.68L67.81-25.68 70.01-25.2Q70.35-23.58 70.35-21.68L70.35-21.68Q70.35-20.61 70.23-17.97 70.11-15.33 70.11-13.96L70.11-13.96Q70.11-11.57 70.33-9.84 70.55-8.11 71.16-6.47 71.77-4.83 73.04-3.96 74.31-3.08 76.21-3.08L76.21-3.08Q78.36-3.08 80.85-4.05L80.85-4.05Q80.95-5.86 81.04-13.31 81.14-20.75 81.53-24.51ZM107.21-37.3L106.58 1.27 103.89 0.73Q103.89-0.24 103.84-0.73L103.84-0.73Q101.26 0.93 98.38 0.93L98.38 0.93Q93.93 0.93 91.47-2.88 89-6.69 89-11.52L89-11.52Q89-14.01 89.37-16.21 89.73-18.41 90.64-20.73 91.54-23.05 93.47-24.41 95.4-25.78 98.13-25.78L98.13-25.78Q100.82-25.78 103.16-24.46L103.16-24.46Q103.55-29.64 103.55-34.91L103.55-34.91Q103.55-37.3 103.5-38.43L103.5-38.43Q105.85-37.99 107.21-37.3L107.21-37.3ZM103.45-3.96L103.45-3.96 103.31-19.68Q102.72-20.9 101.48-21.61 100.23-22.31 98.82-22.31L98.82-22.31Q96.91-22.31 95.57-21.09 94.23-19.87 93.66-17.85 93.1-15.82 92.88-14.06 92.66-12.3 92.66-10.35L92.66-10.35Q92.66-2.05 98.23-2.05L98.23-2.05Q100.09-2.05 101.62-2.56 103.16-3.08 103.45-3.96ZM111.17-10.4L111.17-10.4Q111.17-12.35 111.58-14.75 112-17.14 112.83-19.78 113.66-22.41 115.32-24.17 116.98-25.93 119.17-25.93L119.17-25.93Q123.86-25.93 126.69-21.7 129.53-17.48 129.53-12.3L129.53-12.3Q129.53-10.11 129.06-7.93 128.6-5.76 127.62-3.66 126.65-1.56 124.81-0.17 122.98 1.22 120.54 1.42L120.54 1.42Q116.05 0.83 113.61-2.42 111.17-5.66 111.17-10.4ZM119.47-23.39L119.47-23.39Q117.76-23.19 116.59-20.26 115.41-17.33 115.07-14.58 114.73-11.82 114.73-9.72L114.73-9.72Q114.73-6.98 116.42-4.66 118.1-2.34 120.2-2.34L120.2-2.34Q121.71-2.34 122.93-3.52 124.15-4.69 124.86-6.42 125.57-8.15 125.94-9.91 126.3-11.67 126.3-13.04L126.3-13.04Q126.3-17.04 124.5-20.02 122.69-23 119.47-23.39Z" opacity="1" transform="matrix(1,0,0,1,0,0)" fill="#000000" class="undefined-text-0" data-fill-palette-color="primary" id="text-0"></path></svg></g></svg></g></svg></g></svg></g></svg></g></svg></g></svg></g><g><path d="M245.816 0c68.262 0 123.6 55.338 123.6 123.6 0 68.262-55.338 123.6-123.6 123.6-51.693 0-95.974-31.733-114.425-76.782h3.701c18.254 43.116 60.956 73.366 110.724 73.366 66.376 0 120.184-53.808 120.184-120.184 0-66.376-53.808-120.184-120.184-120.184-49.768 0-92.47 30.25-110.724 73.366l-3.701 0c18.451-45.049 62.732-76.782 114.425-76.782z" fill="#fbfbfb" stroke="transparent" data-fill-palette-color="tertiary"></path></g></svg></g><defs></defs></svg><rect width="395.52" height="247.2" fill="none" stroke="none" visibility="hidden"></rect></g></svg></g></svg>